# xmcd
#
# Track frame offsets: 
#        150
#        14168
#        33692
#        48644
#        63034
#        81779
#        95577
#        111064
#        125748
#        140905
#        155907
#        181077
#        194921
#        210737
#        222136
#        237190
#        252257
#        267077
#
# Disc length: 3784 seconds
#
# Revision: 0
# Processed by: cddbd v1.5.2PL0 Copyright (c) Steve Scherf et al.
# Submitted via: ExactAudioCopyFreeDBPlugin 1.0
#
DISCID=170ec612
DTITLE=Edith Piaf - The Best of Edith Piaf
DYEAR=2000
DGENRE=Chanson
TTITLE0=La Vie En Rose
TTITLE1=J'm'en Fous Pas Mal
TTITLE2=Les Momes De La Cloche
TTITLE3=Mom Amant De La Coloniale
TTITLE4=Les Trois Cloches
TTITLE5=J'suis Mordue
TTITLE6=Va Danser
TTITLE7=Correqu'et Et Reguyer
TTITLE8=Fais-Moi Valser
TTITLE9=Browning
TTITLE10=Dans Ma Rue
TTITLE11=Entre Saint-Ouen Et Clignancourt
TTITLE12=Ding Din Dong
TTITLE13=C'est Toi Le Plus Fort
TTITLE14=La Petite Boutique
TTITLE15=Madelenie Qu' Avait Du Coeur
TTITLE16=Je N'en Connais Pas La Fin
TTITLE17=Le Grand Voyage Du Pauvre Negre
EXTD=
EXTT0=
EXTT1=
EXTT2=
EXTT3=
EXTT4=
EXTT5=
EXTT6=
EXTT7=
EXTT8=
EXTT9=
EXTT10=
EXTT11=
EXTT12=
EXTT13=
EXTT14=
EXTT15=
EXTT16=
EXTT17=
PLAYORDER=
